<svg xmlns="http://www.w3.org/2000/svg" viewBox="0 0 71 136"><title>socks-crosshatches</title><path d="M66.75,4.13c-6.5,7-23.37,23.25-31.62,31.5M34.88,40c8.25-8.25,26.5-26.5,33-33.5m-33,47.25c8.25-8.25,26-25.12,32.5-32.12M35.63,18.5C43.88,10.25,44.5,9.88,51,2.88m-15.87,68c8.25-8.25,21.63-21.12,28.13-28.12M35.13,73.88c8.25-8.25,21-19.5,27.5-26.5M34.5,88.5c8.25-8.25,19.38-18.75,25.88-25.75M7.25,133.5C15.5,125.25,51,90.25,57.5,83.25M10.88,134.13C19.13,125.88,50.25,95,56.75,88M26.5,131.38c8.25-8.25,22.13-21.5,28.63-28.5M37.5,8c6.5,7,19,19,27.25,27.25M36.5,11c6.5,7,19,19,27.25,27.25M35.5,23.13c6.5,7,18.38,18.25,26.63,26.5m-13.37-47c6.5,7,10.38,10.13,18.63,18.38M35,40.88c6.5,7,16.75,16.75,25,25M34.88,44.5c6.5,7,16.63,16.5,24.88,24.75M35.13,58C41.63,65,49.75,72.38,58,80.63M35,76c6.5,7,12.63,12.88,20.88,21.13M35.13,79.75c6.5,7,12,12.13,20.25,20.38m-21.12-8c6.5,7,12.63,12.63,20.88,20.88m-24.75-9.75c6.5,7,11.25,11,19.5,19.25M29,105.5c6.5,7,10.25,10,18.5,18.25m-25-11.87c6.5,7,8,8.13,16.25,16.38M13.13,117c6.5,7,6.5,6.13,14.75,14.38M10.25,118.25c6.5,7,5.5,5.38,13.75,13.63M2.75,123.5c6.5,7,2.5,2.25,10.75,10.5" style="fill:none;stroke:#e80517;stroke-linejoin:round"/></svg>