<svg xmlns="http://www.w3.org/2000/svg" viewBox="0 0 64 86"><title>socks-stripes</title><path d="M35.5,10.5c5.75.5,18.75,1,26,1.75M35,17.5c6.25.5,18.5,1.5,25.5,1.75m-25.75,5c6.5.5,18.5,1.25,24.75,1.5M58,32.25c-6.75-.5-15-1-23.25-1.5m-.25,5.5C41.25,37,51.25,38.5,56.25,39m-.75,6.25c-5.75-.75-15.75-2.25-22-3m-1.75,5.5c6.75,1.5,18.25,3.5,23,4.5m-24.5,0c6.25,2.25,18,5.5,24.5,7.5M53,68c-6.75-3.5-19-10.75-24-13.25M27,57c4,4.25,13.25,13.25,18.5,18.25M36,78.5c-2.25-4.5-8.75-12.75-12.25-18M19,63.25c2.25,5,7.75,15,9,17.75m-8.25,1.5c-.75-2.75-3.25-11-5.25-16.75M8.5,68c.75,3.5,3,11.25,4.25,15.5" style="fill:none;stroke:#e80517;stroke-linejoin:round"/></svg>