<svg xmlns="http://www.w3.org/2000/svg" viewBox="0 0 61 78"><title>socks-dots</title><path d="M36.58,9A.58.58,0,1,1,36,8.38.58.58,0,0,1,36.58,9ZM42.5,8a.58.58,0,1,0,.58.58A.58.58,0,0,0,42.5,8Zm6,0a.58.58,0,1,0,.58.58A.58.58,0,0,0,48.5,8Zm6,0a.58.58,0,1,0,.58.58A.58.58,0,0,0,54.5,8ZM39,12.58a.58.58,0,1,0,.58.58A.58.58,0,0,0,39,12.58Zm6.5.57a.58.58,0,1,0,.58.58A.58.58,0,0,0,45.5,13.15Zm6,0a.58.58,0,1,0,.58.58A.58.58,0,0,0,51.5,13.15Zm4.25-.73a.58.58,0,1,0,.58.58A.58.58,0,0,0,55.75,12.42Zm-19.5,6.33a.58.58,0,1,0,.58.58A.58.58,0,0,0,36.25,18.75Zm6.25-.4a.58.58,0,1,0,.58.58A.58.58,0,0,0,42.5,18.35Zm6,0a.58.58,0,1,0,.58.58A.58.58,0,0,0,48.5,18.35Zm6,0a.58.58,0,1,0,.58.58A.58.58,0,0,0,54.5,18.35ZM39,23.54a.58.58,0,1,0,.58.58A.58.58,0,0,0,39,23.54Zm6.5,0a.58.58,0,1,0,.58.58A.58.58,0,0,0,45.5,23.54Zm6,0a.58.58,0,1,0,.58.58A.58.58,0,0,0,51.5,23.54Zm-15,5.2a.58.58,0,1,0,.58.58A.58.58,0,0,0,36.5,28.74Zm6,0a.58.58,0,1,0,.58.58A.58.58,0,0,0,42.5,28.74Zm6,0a.58.58,0,1,0,.58.58A.58.58,0,0,0,48.5,28.74Zm6,0a.58.58,0,1,0,.58.58A.58.58,0,0,0,54.5,28.74ZM34.33,34.08a.58.58,0,1,0,.58.58A.58.58,0,0,0,34.33,34.08Zm5.17-.15a.58.58,0,1,0,.58.58A.58.58,0,0,0,39.5,33.94Zm6,0a.58.58,0,1,0,.58.58A.58.58,0,0,0,45.5,33.94Zm6,0a.58.58,0,1,0,.58.58A.58.58,0,0,0,51.5,33.94Zm-15,5.2a.58.58,0,1,0,.58.58A.58.58,0,0,0,36.5,39.13Zm6,0a.58.58,0,1,0,.58.58A.58.58,0,0,0,42.5,39.13ZM48.25,39a.58.58,0,1,0,.58.58A.58.58,0,0,0,48.25,39Zm5.25.13a.58.58,0,1,0,.58.58A.58.58,0,0,0,53.5,39.13Zm-20,5.2a.58.58,0,1,0,.58.58A.58.58,0,0,0,33.5,44.33Zm6,0a.58.58,0,1,0,.58.58A.58.58,0,0,0,39.5,44.33Zm6,0a.58.58,0,1,0,.58.58A.58.58,0,0,0,45.5,44.33Zm5.25,0a.58.58,0,1,0,.58.58A.58.58,0,0,0,50.75,44.33ZM30.5,49.52a.58.58,0,1,0,.58.58A.58.58,0,0,0,30.5,49.52Zm6,0a.58.58,0,1,0,.58.58A.58.58,0,0,0,36.5,49.52Zm6,0a.58.58,0,1,0,.58.58A.58.58,0,0,0,42.5,49.52Zm6,0a.58.58,0,1,0,.58.58A.58.58,0,0,0,48.5,49.52ZM22,55.08a.58.58,0,1,0,.58.58A.58.58,0,0,0,22,55.08Zm6-.86a.58.58,0,1,0,.58.58A.58.58,0,0,0,28,54.22Zm5.5.5a.58.58,0,1,0,.58.58A.58.58,0,0,0,33.5,54.72Zm6,0a.58.58,0,1,0,.58.58A.58.58,0,0,0,39.5,54.72Zm6,0a.58.58,0,1,0,.58.58A.58.58,0,0,0,45.5,54.72Zm6,0a.58.58,0,1,0,.58.58A.58.58,0,0,0,51.5,54.72Zm-39,5.2a.58.58,0,1,0,.58.58A.58.58,0,0,0,12.5,59.92Zm6,0a.58.58,0,1,0,.58.58A.58.58,0,0,0,18.5,59.92Zm6.83-.33a.58.58,0,1,0,.58.58A.58.58,0,0,0,25.33,59.58Zm5.17.33a.58.58,0,1,0,.58.58A.58.58,0,0,0,30.5,59.92Zm6,0a.58.58,0,1,0,.58.58A.58.58,0,0,0,36.5,59.92Zm6,0a.58.58,0,1,0,.58.58A.58.58,0,0,0,42.5,59.92Zm6,0a.58.58,0,1,0,.58.58A.58.58,0,0,0,48.5,59.92ZM5,64.42a.58.58,0,1,0,.58.58A.58.58,0,0,0,5,64.42Zm4.5.7a.58.58,0,1,0,.58.58A.58.58,0,0,0,9.5,65.11Zm6,0a.58.58,0,1,0,.58.58A.58.58,0,0,0,15.5,65.11Zm6,0a.58.58,0,1,0,.58.58A.58.58,0,0,0,21.5,65.11Zm6,0a.58.58,0,1,0,.58.58A.58.58,0,0,0,27.5,65.11Zm6,0a.58.58,0,1,0,.58.58A.58.58,0,0,0,33.5,65.11Zm6,0a.58.58,0,1,0,.58.58A.58.58,0,0,0,39.5,65.11Zm-33,5.2a.58.58,0,1,0,.58.58A.58.58,0,0,0,6.5,70.31Zm6,0a.58.58,0,1,0,.58.58A.58.58,0,0,0,12.5,70.31Zm6,0a.58.58,0,1,0,.58.58A.58.58,0,0,0,18.5,70.31Zm6,0a.58.58,0,1,0,.58.58A.58.58,0,0,0,24.5,70.31Z" style="fill:none;stroke:#e80517;stroke-miterlimit:10"/></svg>