<svg xmlns="http://www.w3.org/2000/svg" viewBox="0 0 30 34"><title>socks-smell-3</title><path d="M4.37,32.33c-.54-1,1.29-2.91,1.29-4S3.94,26.2,4.16,24.69s3.12-2.37,3.23-3.87-3-2.48-3.12-3.55,2.48-4,2.48-4m7,14.64c-.22-.43,1.29-1.88,1.78-2.8s-.65-1.83-1.08-2.26a2.2,2.2,0,0,1-.81-1.72c0-.86,1-1.61,2.42-3.23s1.61-2.1.91-3.12-2.85-2.21-2.85-2.85S17.61,9.36,17.5,7s-3.23-3.82-3.23-4.63A1.7,1.7,0,0,1,15,1.12M25.66,9.52c-.86,1.61-2.42,4.9-2.21,5.81s3.5,1.29,3.44,2.15-1.4,1.88-2.21,2.58S23,21.25,23.07,21.84,24.47,23,24.26,24s-2,2-1.94,2.91a6.53,6.53,0,0,0,.43,1.78" style="fill:none;stroke:#e80517;stroke-linecap:round;stroke-linejoin:round"/></svg>