<svg xmlns="http://www.w3.org/2000/svg" viewBox="0 0 64 86"><title>socks</title><path d="M29,80.93C46.13,76.47,50,73.16,52.35,70S54.82,63.35,55,60c.29-4.29-.18-6.91,1.19-16.73S59.58,25.7,61,18.5c2-10.17.48-15.38-2.09-15.82s-6,1.92-6.76,4.41C51.8,4.49,50.29,1.82,48.44,2S44.7,4.64,44.16,7.16c-.8-2.63-3-5.46-5.27-5S35.36,8,35,17s.48,14.17-1.33,24.3S27.48,58.67,21.58,62.2a90.71,90.71,0,0,1-15.5,6.89,7.43,7.43,0,0,0-4.34,8.37c.71,4.05,6.59,6.79,11.13,6.55S23,82.51,29,80.93Z" style="fill:none;stroke:#e80517;stroke-linejoin:round"/></svg>