<svg xmlns="http://www.w3.org/2000/svg" viewBox="0 0 71 136"><title>socks-stripes</title><path d="M68.25,13.5c-6.75,0-26.87-1.25-31.87-1.87m-.87,7c7.5.63,21.25,1.13,31.75,1.5m-1,7.13c-9.5-.5-23.87-1-30.87-1m-.5,7c5.88,0,18.63.63,29.88.75M35,40.63c9,.25,18,.13,28.5-.25m-1.25,6.75c-9-.25-19.62.25-27.75.13M61.13,54c-6.87-.12-20.62.5-26.12.5m25.38,6.38c-8.75-.5-18.75.38-25.5.38m24.5,7c-6.62-.25-17.75.13-24.5.25m0,6.63c6.88.38,16.25-.37,23.5,0M34.63,82c8.63.38,15.13.63,22.63.5m-.75,7.38c-7.75-.37-15.75-1-22.12-1.12M33.13,95.5c6.25.75,15.5,1.25,22.13,1.88M55,104.63c-6.12-2.25-16-3.12-23-4.75m14.5,24.38c-3-4.12-13.12-14.12-17.5-18.75m-3.12,3.88c2.25,5.25,9.25,15.5,11.25,19.38M20.5,113.25c2,5.13,5.88,15.13,7,17.63M14.25,116.5c1.5,4.13,4.38,13.88,5.63,16.13M12.63,134c-.25-1.75-3-12.37-3.62-15.37M30.75,103c5.25,3,18.5,10,23.5,12.75" style="fill:none;stroke:#e80517;stroke-linejoin:round"/></svg>