<svg xmlns="http://www.w3.org/2000/svg" viewBox="0 0 71 136"><title>socks</title><path d="M28.34,131c10-2.28,18.42-4.9,23.26-10.37s3.7-12,3.73-18c0-8.72,3.77-29,5.67-45s4.39-24.32,5.38-30.28c2-11.72,2.4-17.29,1.93-19.87S67,3.6,65.9,3.38,63.41,4.6,62.82,5.56c-1-2.35-2.42-4-4.39-3.6s-3.45,2-4.62,3.9c-1.43-2.28-3-3.51-4.62-3.47a4.86,4.86,0,0,0-3.69,2.54,3.8,3.8,0,0,0-4.94-1.55c-1.45.86-4.54,6.17-5,14s-.87,26.06-.68,39.08.41,33.64-2,40.86a30.2,30.2,0,0,1-10.89,15c-4,2.94-13.18,6.23-16.22,7.64s-4.39,5.63-3.54,8.87S6.78,134,11,134,22.65,132.29,28.34,131Z" style="fill:none;stroke:#e80517;stroke-linejoin:round"/></svg>