<svg xmlns="http://www.w3.org/2000/svg" viewBox="0 0 61 78"><title>socks-crosshatches</title><path d="M48.42,3.67c-6.5,7-7.54,7.52-15.79,15.77m0,3c8.25-8.25,13.7-13.18,20.2-20.18M31,37.93c8.25-8.25,21.29-20.21,27.79-27.21M11.09,75.66C19.34,67.41,50.47,36.53,57,29.53M15.13,75.38c8.25-8.25,34.71-34,41.21-41M32.91,70.84C41.16,62.59,48.35,56,54.85,49M43.58,2.58c6.5,7,6.67,6.33,14.92,14.58M41.67,3.75c6.5,7,8.17,8,16.42,16.25M33.38,9.13c6.5,7,15,13.85,23.27,22.1m-24.3-5.89c6.5,7,14.32,14.74,22.57,23M32.06,28.81c6.5,7,14.32,14.49,22.57,22.74m-24-10.9c6.5,7,12.44,12.31,20.69,20.56M25.54,50.46c6.5,7,8.8,8.39,17.05,16.64M23.53,52c6.5,7,8.34,8,16.59,16.22M15.47,56.84c6.5,7,6.31,6.56,14.56,14.81M5.31,61.19c6.5,7,5.31,5.19,13.56,13.44M3.13,63.13c6.5,7,4,4,12.28,12.28" style="fill:none;stroke:#e80517;stroke-linejoin:round"/></svg>