<svg xmlns="http://www.w3.org/2000/svg" viewBox="0 0 71 136"><title>socks-dots</title><path d="M61.83,11.72a.58.58,0,1,1-.58-.58A.58.58,0,0,1,61.83,11.72Zm-3.58,4.61a.58.58,0,1,0,.58.58A.58.58,0,0,0,58.25,16.34Zm6,0a.58.58,0,1,0,.58.58A.58.58,0,0,0,64.25,16.34Zm-9,5.2a.58.58,0,1,0,.58.58A.58.58,0,0,0,55.25,21.53Zm6,0a.58.58,0,1,0,.58.58A.58.58,0,0,0,61.25,21.53Zm-9,5.2a.58.58,0,1,0,.58.58A.58.58,0,0,0,52.25,26.73Zm6,0a.58.58,0,1,0,.58.58A.58.58,0,0,0,58.25,26.73Zm6,0a.58.58,0,1,0,.58.58A.58.58,0,0,0,64.25,26.73Zm-15,5.2a.58.58,0,1,0,.58.58A.58.58,0,0,0,49.25,31.93Zm6,0a.58.58,0,1,0,.58.58A.58.58,0,0,0,55.25,31.93Zm6,0a.58.58,0,1,0,.58.58A.58.58,0,0,0,61.25,31.93Zm-15,5.2a.58.58,0,1,0,.58.58A.58.58,0,0,0,46.25,37.12Zm6,0a.58.58,0,1,0,.58.58A.58.58,0,0,0,52.25,37.12Zm6,0a.58.58,0,1,0,.58.58A.58.58,0,0,0,58.25,37.12Zm-15,5.2a.58.58,0,1,0,.58.58A.58.58,0,0,0,43.25,42.32Zm6,0a.58.58,0,1,0,.58.58A.58.58,0,0,0,49.25,42.32Zm6,0a.58.58,0,1,0,.58.58A.58.58,0,0,0,55.25,42.32Zm6,0a.58.58,0,1,0,.58.58A.58.58,0,0,0,61.25,42.32Zm-21,5.2a.58.58,0,1,0,.58.58A.58.58,0,0,0,40.25,47.51Zm6,0a.58.58,0,1,0,.58.58A.58.58,0,0,0,46.25,47.51Zm6,0a.58.58,0,1,0,.58.58A.58.58,0,0,0,52.25,47.51Zm6,0a.58.58,0,1,0,.58.58A.58.58,0,0,0,58.25,47.51Zm-21,5.2a.58.58,0,1,0,.58.58A.58.58,0,0,0,37.25,52.71Zm6,0a.58.58,0,1,0,.58.58A.58.58,0,0,0,43.25,52.71Zm6,0a.58.58,0,1,0,.58.58A.58.58,0,0,0,49.25,52.71Zm6,0a.58.58,0,1,0,.58.58A.58.58,0,0,0,55.25,52.71Zm0-41.57a.58.58,0,1,0,.58.58A.58.58,0,0,0,55.25,11.14Zm-3,5.2a.58.58,0,1,0,.58.58A.58.58,0,0,0,52.25,16.34Zm-3,5.2a.58.58,0,1,0,.58.58A.58.58,0,0,0,49.25,21.53Zm-3,5.2a.58.58,0,1,0,.58.58A.58.58,0,0,0,46.25,26.73Zm-3,5.2a.58.58,0,1,0,.58.58A.58.58,0,0,0,43.25,31.93Zm-3,5.2a.58.58,0,1,0,.58.58A.58.58,0,0,0,40.25,37.12Zm-3,5.2a.58.58,0,1,0,.58.58A.58.58,0,0,0,37.25,42.32Zm12-31.18a.58.58,0,1,0,.58.58A.58.58,0,0,0,49.25,11.14Zm-3,5.2a.58.58,0,1,0,.58.58A.58.58,0,0,0,46.25,16.34Zm-3,5.2a.58.58,0,1,0,.58.58A.58.58,0,0,0,43.25,21.53Zm-3,5.2a.58.58,0,1,0,.58.58A.58.58,0,0,0,40.25,26.73Zm-3,5.2a.58.58,0,1,0,.58.58A.58.58,0,0,0,37.25,31.93Zm6.17-21.51A.58.58,0,1,0,44,11,.58.58,0,0,0,43.42,10.42Zm-3.67,4.83a.58.58,0,1,0,.58.58A.58.58,0,0,0,39.75,15.25ZM38.17,21a.58.58,0,1,0,.58.58A.58.58,0,0,0,38.17,21Zm2.08,36.91a.58.58,0,1,0,.58.58A.58.58,0,0,0,40.25,57.91Zm6,0a.58.58,0,1,0,.58.58A.58.58,0,0,0,46.25,57.91Zm6,0a.58.58,0,1,0,.58.58A.58.58,0,0,0,52.25,57.91Zm6,0a.58.58,0,1,0,.58.58A.58.58,0,0,0,58.25,57.91Zm-21,5.2a.58.58,0,1,0,.58.58A.58.58,0,0,0,37.25,63.1Zm6,0a.58.58,0,1,0,.58.58A.58.58,0,0,0,43.25,63.1Zm6,0a.58.58,0,1,0,.58.58A.58.58,0,0,0,49.25,63.1Zm6,0a.58.58,0,1,0,.58.58A.58.58,0,0,0,55.25,63.1Zm-15,5.2a.58.58,0,1,0,.58.58A.58.58,0,0,0,40.25,68.3Zm6,0a.58.58,0,1,0,.58.58A.58.58,0,0,0,46.25,68.3Zm6,0a.58.58,0,1,0,.58.58A.58.58,0,0,0,52.25,68.3Zm-15,5.2a.58.58,0,1,0,.58.58A.58.58,0,0,0,37.25,73.49Zm6,0a.58.58,0,1,0,.58.58A.58.58,0,0,0,43.25,73.49Zm6,0a.58.58,0,1,0,.58.58A.58.58,0,0,0,49.25,73.49Zm6,0a.58.58,0,1,0,.58.58A.58.58,0,0,0,55.25,73.49Zm-15,5.2a.58.58,0,1,0,.58.58A.58.58,0,0,0,40.25,78.69Zm6,0a.58.58,0,1,0,.58.58A.58.58,0,0,0,46.25,78.69Zm6,0a.58.58,0,1,0,.58.58A.58.58,0,0,0,52.25,78.69Zm-15,5.2a.58.58,0,1,0,.58.58A.58.58,0,0,0,37.25,83.89Zm6,0a.58.58,0,1,0,.58.58A.58.58,0,0,0,43.25,83.89Zm6,0a.58.58,0,1,0,.58.58A.58.58,0,0,0,49.25,83.89Zm6,0a.58.58,0,1,0,.58.58A.58.58,0,0,0,55.25,83.89Zm-15,5.2a.58.58,0,1,0,.58.58A.58.58,0,0,0,40.25,89.08Zm6,0a.58.58,0,1,0,.58.58A.58.58,0,0,0,46.25,89.08Zm6,0a.58.58,0,1,0,.58.58A.58.58,0,0,0,52.25,89.08Zm-15,5.2a.58.58,0,1,0,.58.58A.58.58,0,0,0,37.25,94.28Zm6,0a.58.58,0,1,0,.58.58A.58.58,0,0,0,43.25,94.28Zm6,0a.58.58,0,1,0,.58.58A.58.58,0,0,0,49.25,94.28ZM34.5,99.42a.58.58,0,1,0,.58.58A.58.58,0,0,0,34.5,99.42Zm5.75.06a.58.58,0,1,0,.58.58A.58.58,0,0,0,40.25,99.48Zm6,0a.58.58,0,1,0,.58.58A.58.58,0,0,0,46.25,99.48Zm6,0a.58.58,0,1,0,.58.58A.58.58,0,0,0,52.25,99.48Zm-20.42,5.27a.58.58,0,1,0,.58.58A.58.58,0,0,0,31.83,104.75Zm5.42-.08a.58.58,0,1,0,.58.58A.58.58,0,0,0,37.25,104.67Zm6,0a.58.58,0,1,0,.58.58A.58.58,0,0,0,43.25,104.67Zm6,0a.58.58,0,1,0,.58.58A.58.58,0,0,0,49.25,104.67Zm-21,5.2a.58.58,0,1,0,.58.58A.58.58,0,0,0,28.25,109.87Zm6,0a.58.58,0,1,0,.58.58A.58.58,0,0,0,34.25,109.87Zm6,0a.58.58,0,1,0,.58.58A.58.58,0,0,0,40.25,109.87Zm6,0a.58.58,0,1,0,.58.58A.58.58,0,0,0,46.25,109.87Zm6,0a.58.58,0,1,0,.58.58A.58.58,0,0,0,52.25,109.87ZM19.5,116.25a.58.58,0,1,0,.58.58A.58.58,0,0,0,19.5,116.25Zm5.75-1.19a.58.58,0,1,0,.58.58A.58.58,0,0,0,25.25,115.06Zm6,0a.58.58,0,1,0,.58.58A.58.58,0,0,0,31.25,115.06Zm6,0a.58.58,0,1,0,.58.58A.58.58,0,0,0,37.25,115.06Zm6,0a.58.58,0,1,0,.58.58A.58.58,0,0,0,43.25,115.06Zm6,0a.58.58,0,1,0,.58.58A.58.58,0,0,0,49.25,115.06Zm-39,5.2a.58.58,0,1,0,.58.58A.58.58,0,0,0,10.25,120.26Zm6,0a.58.58,0,1,0,.58.58A.58.58,0,0,0,16.25,120.26Zm6,0a.58.58,0,1,0,.58.58A.58.58,0,0,0,22.25,120.26Zm6,0a.58.58,0,1,0,.58.58A.58.58,0,0,0,28.25,120.26Zm6,0a.58.58,0,1,0,.58.58A.58.58,0,0,0,34.25,120.26Zm6,0a.58.58,0,1,0,.58.58A.58.58,0,0,0,40.25,120.26Zm6,0a.58.58,0,1,0,.58.58A.58.58,0,0,0,46.25,120.26Zm-39,5.2a.58.58,0,1,0,.58.58A.58.58,0,0,0,7.25,125.46Zm6,0a.58.58,0,1,0,.58.58A.58.58,0,0,0,13.25,125.46Zm6,0a.58.58,0,1,0,.58.58A.58.58,0,0,0,19.25,125.46Zm5.58.21a.58.58,0,1,0,.58.58A.58.58,0,0,0,24.83,125.67Zm6.42-.21a.58.58,0,1,0,.58.58A.58.58,0,0,0,31.25,125.46Zm6-.79a.58.58,0,1,0,.58.58A.58.58,0,0,0,37.25,124.67Zm-27,6a.58.58,0,1,0,.58.58A.58.58,0,0,0,10.25,130.65Zm6.25-.9a.58.58,0,1,0,.58.58A.58.58,0,0,0,16.5,129.75Z" style="fill:none;stroke:#e80517;stroke-miterlimit:10"/></svg>