<svg xmlns="http://www.w3.org/2000/svg" viewBox="0 0 61 78"><title>socks-stripes</title><path d="M32.75,10.42c5.75.5,18.92,1,26.17,1.75M33,17.42c6.25.5,18.17,1.67,25.17,1.92M32.42,24.42c6.5.5,18.33,1.08,24.58,1.33m-.83,6.67c-6.75-.5-16.17-1.17-24.42-1.67m-.83,5.5C37.67,37,50.67,39,55.67,39.5m-.58,6.33c-5.75-.75-18.33-3.42-24.58-4.58m-.92,3.5c6.5,2.17,20.25,7,25.08,8.5M28.33,47.33c6.08,3.17,17,9.33,23.5,12.92m-5.5,5.33C40.5,61.08,31,52.33,26.83,49m-2,2.08c3.67,4.33,8.33,12.33,12.83,18M30,71.67c-2.25-4.5-6.75-12.25-9.83-17.5m-5.75,2.92c2.25,5,7.08,14,8.33,16.75m-6.58,1.5C15.42,72.58,12,65,10,59.25m-4.33,2c.75,3.5,2.83,9.92,4.08,14.17" style="fill:none;stroke:#e80517;stroke-linejoin:round"/></svg>