<svg xmlns="http://www.w3.org/2000/svg" viewBox="0 0 64 86"><title>socks-crosshatches</title><path d="M50.88,4.13c-6.5,7-7.5,7.5-15.75,15.75m0,3c8.25-8.25,10.25-9.62,16.75-16.62M34.5,37.5c8.25-8.25,21.13-20.12,27.63-27.12M6.88,82.88C15.13,74.63,51.63,38.5,58.13,31.5M9.63,83.88c8.25-8.25,41.13-40.25,47.63-47.25M25,81.75c8.25-8.25,23.63-22.87,30.13-29.87m-8.37-49c6.5,7,6.38,6,14.63,14.25M45.38,4.5c6.5,7,7.13,6.75,15.38,15M35.88,8.5c6.5,7,14.25,13.25,22.5,21.5M35,25c6.5,7,12.63,12.88,20.88,21.13M35.13,28.75c6.5,7,12,12.13,20.25,20.38M33.75,41c6.5,7,13.13,12.75,21.38,21M30.38,52.25c6.5,7,12,11.63,20.25,19.88M29,54.5c6.5,7,11.13,10.75,19.38,19m-25.25-12c6.5,7,7.88,8.13,16.13,16.38M13.13,66c6.5,7,7.13,7,15.38,15.25m-18.25-14c6.5,7,6.25,6.25,14.5,14.5m-22-9.25c6.5,7,3.25,2.75,11.5,11" style="fill:none;stroke:#e80517;stroke-linejoin:round"/></svg>