<svg xmlns="http://www.w3.org/2000/svg" viewBox="0 0 53 44"><title>socks-crosshatches</title><path d="M43,4.13c-6.5,7-27.62,28-35.87,36.25m3.13.5C18.5,32.63,42,10.25,48.5,3.25M25,40.38c8.25-8.25,18.38-18.12,24.88-25.12M37.38,5c6.5,7,4.25,4.25,12.5,12.5m-21.5-7.25c6.5,7,11.13,10.75,19.38,19m-20-16c6.5,7,10.25,9.63,18.5,17.88M22.5,21c6.5,7,7,7,15.25,15.25M12.13,25c6.5,7,6.5,6.13,14.75,14.38M9.25,26.25c6.5,7,6.13,6,14.38,14.25M2.38,32.13c6.5,7,.88.75,9.13,9" style="fill:none;stroke:#e80517;stroke-linejoin:round"/></svg>