<svg xmlns="http://www.w3.org/2000/svg" viewBox="0 0 53 44"><title>socks-dots</title><path d="M35,6.8a.58.58,0,1,1-.58-.58A.58.58,0,0,1,35,6.8Zm5.42-.58A.58.58,0,1,0,41,6.8.58.58,0,0,0,40.42,6.22Zm6,0A.58.58,0,1,0,47,6.8.58.58,0,0,0,46.42,6.22Zm-15,5.2A.58.58,0,1,0,32,12,.58.58,0,0,0,31.42,11.42Zm6,0A.58.58,0,1,0,38,12,.58.58,0,0,0,37.42,11.42Zm5.08-.25a.58.58,0,1,0,.58.58A.58.58,0,0,0,42.5,11.17Zm5.42-.08a.58.58,0,1,0,.58.58A.58.58,0,0,0,47.92,11.08ZM29,16.58a.58.58,0,1,0,.58.58A.58.58,0,0,0,29,16.58Zm5.42,0a.58.58,0,1,0,.58.58A.58.58,0,0,0,34.42,16.61Zm6,0a.58.58,0,1,0,.58.58A.58.58,0,0,0,40.42,16.61Zm6,0a.58.58,0,1,0,.58.58A.58.58,0,0,0,46.42,16.61Zm-21,5.2a.58.58,0,1,0,.58.58A.58.58,0,0,0,25.42,21.81Zm6,0a.58.58,0,1,0,.58.58A.58.58,0,0,0,31.42,21.81Zm6,0a.58.58,0,1,0,.58.58A.58.58,0,0,0,37.42,21.81Zm6,0a.58.58,0,1,0,.58.58A.58.58,0,0,0,43.42,21.81ZM10,27.67a.58.58,0,1,0,.58.58A.58.58,0,0,0,10,27.67ZM16.42,27a.58.58,0,1,0,.58.58A.58.58,0,0,0,16.42,27Zm6,0a.58.58,0,1,0,.58.58A.58.58,0,0,0,22.42,27Zm6,0a.58.58,0,1,0,.58.58A.58.58,0,0,0,28.42,27Zm6,0a.58.58,0,1,0,.58.58A.58.58,0,0,0,34.42,27Zm6,0a.58.58,0,1,0,.58.58A.58.58,0,0,0,40.42,27Zm5.25.33a.58.58,0,1,0,.58.58A.58.58,0,0,0,45.67,27.33ZM7.42,32.2a.58.58,0,1,0,.58.58A.58.58,0,0,0,7.42,32.2Zm6,0a.58.58,0,1,0,.58.58A.58.58,0,0,0,13.42,32.2Zm6,0a.58.58,0,1,0,.58.58A.58.58,0,0,0,19.42,32.2Zm6,0a.58.58,0,1,0,.58.58A.58.58,0,0,0,25.42,32.2Zm6,0a.58.58,0,1,0,.58.58A.58.58,0,0,0,31.42,32.2Zm6,0a.58.58,0,1,0,.58.58A.58.58,0,0,0,37.42,32.2ZM5.17,36.08a.58.58,0,1,0,.58.58A.58.58,0,0,0,5.17,36.08Zm5.25,1.31A.58.58,0,1,0,11,38,.58.58,0,0,0,10.42,37.4Zm6,0A.58.58,0,1,0,17,38,.58.58,0,0,0,16.42,37.4Zm6,0A.58.58,0,1,0,23,38,.58.58,0,0,0,22.42,37.4Zm6.08-.73a.58.58,0,1,0,.58.58A.58.58,0,0,0,28.5,36.67Z" style="fill:none;stroke:#e80517;stroke-miterlimit:10"/></svg>