<svg xmlns="http://www.w3.org/2000/svg" viewBox="0 0 61 78"><title>socks</title><path d="M29.05,72c17-5,20.74-8.4,23-11.62s2.41-6.59,2.89-10c.31-5,.53-7.32,1.6-17.18s.91-9.19,1.83-16.56c1.25-10,0-14.14-2.54-14.75a5.47,5.47,0,0,0-6.3,3.6c-.43-2.58-2.34-4.2-4.19-3.93A5.19,5.19,0,0,0,40.69,5.5C39.81,2.9,38.1,1.45,35.81,2s-2.41,5.48-3,14.45c-.5,8.27-.62,12.52-1.64,20.31-1.33,10.2-4.38,13.06-10.16,16.76A90.71,90.71,0,0,1,5.77,60.84a7.43,7.43,0,0,0-4.08,8.5c.83,4,6.8,6.59,11.33,6.21S23,73.74,29.05,72Z" style="fill:none;stroke:#e80517;stroke-linejoin:round"/></svg>